# xmcd
#
# Track frame offsets:
#	150
#	22085
#	46110
#	67804
#	89953
#	111797
#	134016
#	156808
#	173298
#
# Disc length: 2611 seconds
#
# Revision: 0
# Processed by: cddbd v1.5.2PL0 Copyright (c) Steve Scherf et al.
# Submitted via: EasyCDDAExtractor 16.0.1.1
#
DISCID=720a3109
DTITLE=minimums - YMO vs minimums
DYEAR=2009
DGENRE=Easy Listening
TTITLE0=RYDEEN
TTITLE1=東風
TTITLE2=TECHNOPOLIS
TTITLE3=君に、胸キュン。
TTITLE4=音楽
TTITLE5=中国女
TTITLE6=ファイアークラッカー
TTITLE7=コズミック・サーフィン
TTITLE8=BEHIND THE MASK
EXTD=
EXTT0=
EXTT1=
EXTT2=
EXTT3=
EXTT4=
EXTT5=
EXTT6=
EXTT7=
EXTT8=
PLAYORDER=
